<?xml version="1.0" standalone="no"?>
<!DOCTYPE svg PUBLIC "-//W3C//DTD SVG 20010904//EN"
 "http://www.w3.org/TR/2001/REC-SVG-20010904/DTD/svg10.dtd">
<svg version="1.0" xmlns="http://www.w3.org/2000/svg"
 width="80.000000pt" height="80.000000pt" viewBox="0 0 80.000000 80.000000"
 preserveAspectRatio="xMidYMid meet">

<g transform="translate(0.000000,80.000000) scale(0.100000,-0.100000)"
fill="#000000" stroke="none">
<path d="M332 789 c-107 -21 -221 -101 -271 -190 l-24 -43 39 31 c42 33 112
63 145 63 11 0 35 11 53 25 49 37 100 55 156 55 54 0 81 -10 117 -42 21 -20
21 -20 33 1 9 18 7 25 -17 48 l-28 27 35 -20 c61 -35 48 -90 -29 -116 -20 -6
-76 -11 -126 -10 -161 3 -260 -26 -340 -99 -89 -82 -95 -195 -15 -317 21 -33
42 -62 47 -65 4 -3 7 23 5 58 -4 76 16 123 79 179 63 57 132 85 254 101 130
17 189 36 238 76 30 25 37 37 37 66 0 67 -115 149 -240 173 -60 11 -87 11
-148 -1z"/>
<path d="M751 587 c-3 -79 -111 -142 -286 -168 -102 -15 -157 -35 -203 -74
-51 -44 -76 -107 -70 -173 6 -61 29 -93 93 -129 44 -24 60 -28 140 -28 77 0
98 4 147 27 106 49 200 157 214 245 21 133 -53 132 -145 -2 -65 -94 -143 -139
-178 -104 -16 16 -26 -6 -19 -45 6 -32 36 -68 66 -79 10 -3 6 -6 -8 -6 -15 -1
-38 13 -58 33 -28 28 -34 42 -34 76 0 88 39 133 197 221 141 80 183 135 153
204 -8 18 -9 18 -9 2z"/>
</g>
</svg>
