<?xml version="1.0" standalone="no"?>
<!DOCTYPE svg PUBLIC "-//W3C//DTD SVG 20010904//EN"
 "http://www.w3.org/TR/2001/REC-SVG-20010904/DTD/svg10.dtd">
<svg version="1.0" xmlns="http://www.w3.org/2000/svg"
 width="40.000000pt" height="40.000000pt" viewBox="0 0 40.000000 40.000000"
 preserveAspectRatio="xMidYMid meet">

<g transform="translate(0.000000,40.000000) scale(0.100000,-0.100000)"
fill="#000000" stroke="none">
<path d="M141 385 c-40 -12 -111 -68 -111 -86 0 -5 12 -2 28 6 61 32 140 65
156 65 9 0 30 -7 46 -15 32 -17 37 -11 16 17 -18 24 -83 30 -135 13z"/>
<path d="M294 367 c22 -16 12 -46 -18 -52 -11 -2 -53 -6 -92 -8 -96 -6 -153
-36 -173 -92 -13 -38 -12 -44 9 -90 l23 -50 7 34 c17 75 71 116 173 130 125
18 169 66 104 115 -19 14 -38 26 -42 26 -5 0 -1 -6 9 -13z"/>
<path d="M367 268 c-9 -25 -54 -45 -127 -58 -97 -17 -139 -49 -140 -107 0 -45
9 -62 41 -78 99 -52 249 30 249 135 0 17 -5 30 -12 30 -7 0 -36 -25 -64 -56
-42 -45 -56 -55 -73 -49 -29 9 -28 -18 1 -45 12 -11 16 -20 10 -20 -17 0 -52
37 -52 55 0 38 33 76 101 115 69 41 85 57 77 82 -3 8 -6 6 -11 -4z"/>
</g>
</svg>
